<svg xmlns="http://www.w3.org/2000/svg" width="41" height="41" fill="none" viewBox="0 0 41 41"><rect width="40" height="40" x="0.25" y="0.25" fill="#fff" rx="9.318"></rect><path fill="#FF6F0F" d="M20.269 15.922c-5.093 0-9.221 4.002-9.221 9.046 0 6.973 9.246 10.674 9.22 10.664-.025.01 9.222-3.69 9.222-10.664 0-5.044-4.129-9.046-9.221-9.046Zm0 12.707c-.69 0-1.365-.203-1.94-.583a3.468 3.468 0 0 1-1.285-1.551 3.426 3.426 0 0 1 .757-3.767 3.52 3.52 0 0 1 3.804-.75 3.482 3.482 0 0 1 1.567 1.274 3.432 3.432 0 0 1-.434 4.365 3.52 3.52 0 0 1-2.469 1.012Z"></path><path fill="#00A05B" d="M22.345 4.399c-2.152 0-3.65 1.489-3.886 3.242-2.87-.785-5.118 1.368-5.118 3.751 0 1.818 1.258 3.286 2.943 3.763 1.357.384 3.799.098 3.799.098-.012-.587.534-1.232 1.376-1.82 2.396-1.669 4.271-2.455 4.56-4.732.304-2.376-1.482-4.302-3.674-4.302Z"></path></svg>